<svg width="1952" height="600" viewBox="0 0 1952 600" fill="none" xmlns="http://www.w3.org/2000/svg">
<g clip-path="url(#clip0_4656_3058)">
<rect width="1952" height="600" fill="white"/>
<line y1="19.499" x2="2157.17" y2="19.499" stroke="#919CA1" stroke-opacity="0.2"/>
<line x1="2.60059" y1="79.5" x2="2159.77" y2="79.5" stroke="#919CA1" stroke-opacity="0.2"/>
<line x1="5.20215" y1="139.501" x2="2162.38" y2="139.501" stroke="#919CA1" stroke-opacity="0.2"/>
<line x1="7.80469" y1="199.502" x2="2164.98" y2="199.502" stroke="#919CA1" stroke-opacity="0.2"/>
<line x1="10.4053" y1="259.503" x2="2167.58" y2="259.503" stroke="#919CA1" stroke-opacity="0.2"/>
<line x1="13.0059" y1="319.504" x2="2170.18" y2="319.504" stroke="#919CA1" stroke-opacity="0.2"/>
<line x1="15.6074" y1="379.505" x2="2172.78" y2="379.505" stroke="#919CA1" stroke-opacity="0.2"/>
<line x1="18.209" y1="439.506" x2="2175.38" y2="439.506" stroke="#919CA1" stroke-opacity="0.2"/>
<line x1="20.8096" y1="499.507" x2="2177.98" y2="499.507" stroke="#919CA1" stroke-opacity="0.2"/>
<line x1="23.4102" y1="559.508" x2="2180.58" y2="559.508" stroke="#919CA1" stroke-opacity="0.2"/>
<line x1="1916.77" y1="935" x2="1916.77" stroke="#919CA1" stroke-opacity="0.2"/>
<line x1="1838.75" y1="935" x2="1838.75" stroke="#919CA1" stroke-opacity="0.2"/>
<line x1="1760.73" y1="935" x2="1760.73" stroke="#919CA1" stroke-opacity="0.2"/>
<line x1="1682.72" y1="935" x2="1682.72" stroke="#919CA1" stroke-opacity="0.2"/>
<line x1="1604.7" y1="935" x2="1604.7" stroke="#919CA1" stroke-opacity="0.2"/>
<line x1="1526.68" y1="935" x2="1526.68" stroke="#919CA1" stroke-opacity="0.2"/>
<line x1="1448.67" y1="935" x2="1448.67" stroke="#919CA1" stroke-opacity="0.2"/>
<line x1="1370.65" y1="935" x2="1370.65" stroke="#919CA1" stroke-opacity="0.2"/>
<line x1="1292.63" y1="935" x2="1292.63" stroke="#919CA1" stroke-opacity="0.2"/>
<line x1="1214.62" y1="935" x2="1214.62" stroke="#919CA1" stroke-opacity="0.2"/>
<line x1="1136.6" y1="935" x2="1136.6" stroke="#919CA1" stroke-opacity="0.2"/>
<line x1="1058.58" y1="935" x2="1058.58" stroke="#919CA1" stroke-opacity="0.2"/>
<line x1="980.564" y1="935" x2="980.564" stroke="#919CA1" stroke-opacity="0.2"/>
<line x1="902.547" y1="935" x2="902.547" stroke="#919CA1" stroke-opacity="0.2"/>
<line x1="824.53" y1="935" x2="824.53" stroke="#919CA1" stroke-opacity="0.2"/>
<line x1="746.513" y1="935" x2="746.513" stroke="#919CA1" stroke-opacity="0.2"/>
<line x1="668.496" y1="935" x2="668.496" stroke="#919CA1" stroke-opacity="0.2"/>
<line x1="590.479" y1="935" x2="590.479" stroke="#919CA1" stroke-opacity="0.2"/>
<line x1="512.462" y1="935" x2="512.462" stroke="#919CA1" stroke-opacity="0.2"/>
<line x1="434.445" y1="935" x2="434.445" stroke="#919CA1" stroke-opacity="0.2"/>
<line x1="356.428" y1="935" x2="356.428" stroke="#919CA1" stroke-opacity="0.2"/>
<line x1="278.411" y1="935" x2="278.411" stroke="#919CA1" stroke-opacity="0.2"/>
<line x1="200.394" y1="935" x2="200.394" stroke="#919CA1" stroke-opacity="0.2"/>
<line x1="122.377" y1="935" x2="122.377" stroke="#919CA1" stroke-opacity="0.2"/>
<path d="M272.521 186.426C255.521 187.55 238.186 193.02 222.718 204.01C175.86 237.301 167.325 304.298 205.17 347.929C234.023 380.831 282.138 389.778 321.37 370.805C344.428 359.9 359.525 341.643 368.204 321.099C371.532 313.257 367.857 304.23 360.47 300.577C342.069 291.058 325.559 277.456 312.629 259.257C299.699 241.058 292.288 220.992 289.354 200.483C288.337 192.306 281.022 185.864 272.521 186.426Z" fill="#E05FB8"/>
<path d="M531.98 422.542C548.98 421.418 566.315 415.948 581.783 404.958C628.641 371.666 637.176 304.669 599.332 261.039C570.479 228.137 522.363 219.19 483.131 238.163C460.073 249.068 444.976 267.325 436.297 287.869C432.969 295.711 436.645 304.738 444.031 308.39C462.433 317.91 478.942 331.512 491.872 349.711C504.802 367.91 512.213 387.976 515.147 408.485C516.165 416.662 523.48 423.104 531.98 422.542Z" fill="#E05FB8"/>
<path d="M520.3 174.809C519.175 157.809 513.703 140.472 502.712 125.003C469.417 78.1404 402.422 69.599 358.796 107.441C325.898 136.292 316.5 184.731 335.932 223.643C346.839 246.703 365.096 261.801 385.64 270.483C393.482 273.812 402.509 270.137 406.16 262.75C415.678 244.349 429.278 227.84 447.475 214.912C465.672 201.983 485.737 194.573 506.245 191.642C514.422 190.625 520.863 183.31 520.3 174.809Z" fill="#E05FB8"/>
<path d="M284.237 434.165C285.363 451.166 290.834 468.503 301.825 483.972C335.12 530.834 402.116 539.376 445.741 501.534C478.64 472.683 488.037 424.243 468.606 385.332C457.699 362.272 439.441 347.173 418.897 338.492C411.055 335.163 402.028 338.838 398.377 346.224C388.86 364.625 375.26 381.134 357.062 394.063C338.865 406.992 318.8 414.401 298.292 417.333C290.115 418.35 283.674 425.665 284.237 434.165Z" fill="#E05FB8"/>
<path d="M253.007 176.67C236.007 177.794 218.671 183.264 203.204 194.254C156.346 227.546 147.811 294.543 185.655 338.173C214.508 371.075 262.624 380.022 301.856 361.049C324.914 350.144 340.01 331.887 348.69 311.343C352.018 303.501 348.342 294.474 340.955 290.822C322.554 281.302 306.044 267.7 293.114 249.501C280.184 231.302 272.773 211.236 269.84 190.727C268.822 182.55 261.507 176.108 253.007 176.67Z" fill="white" stroke="black" stroke-width="7"/>
<path d="M512.463 412.787C529.463 411.663 546.799 406.193 562.267 395.203C609.125 361.911 617.659 294.914 579.815 251.284C550.962 218.382 502.846 209.435 463.614 228.408C440.556 239.313 425.46 257.57 416.78 278.114C413.452 285.956 417.128 294.983 424.515 298.635C442.916 308.155 459.426 321.757 472.356 339.956C485.286 358.155 492.697 378.221 495.63 398.73C496.648 406.907 503.963 413.349 512.463 412.787Z" fill="white" stroke="black" stroke-width="7"/>
<path d="M500.786 165.055C499.66 148.054 494.188 130.717 483.198 115.248C449.903 68.3855 382.907 59.8441 339.282 97.6857C306.383 126.537 296.986 174.976 316.417 213.888C327.324 236.948 345.582 252.046 366.126 260.728C373.967 264.057 382.994 260.382 386.646 252.995C396.163 234.594 409.763 218.086 427.96 205.157C446.158 192.228 466.223 184.818 486.731 181.887C494.908 180.87 501.348 173.555 500.786 165.055Z" fill="white" stroke="black" stroke-width="7"/>
<path d="M264.722 424.41C265.847 441.411 271.319 458.748 282.309 474.217C315.604 521.079 382.6 529.621 426.225 491.779C459.124 462.928 468.521 414.489 449.09 375.577C438.183 352.517 419.926 337.418 399.381 328.737C391.54 325.408 382.513 329.083 378.862 336.47C369.344 354.87 355.744 371.379 337.547 384.308C319.35 397.237 299.285 404.647 278.777 407.578C270.6 408.595 264.159 415.91 264.722 424.41Z" fill="white" stroke="black" stroke-width="7"/>
<path d="M749.5 379.86C745.98 379.86 742.753 378.32 739.82 375.24C736.887 372.16 734.613 366.367 733 357.86C731.973 352.727 731.167 346.933 730.58 340.48C729.993 333.88 729.627 326.18 729.48 317.38C729.48 308.58 729.773 298.313 730.36 286.58C730.947 274.847 731.9 261.207 733.22 245.66C733.513 241.993 734.54 239.06 736.3 236.86C738.06 234.66 740.407 233.56 743.34 233.56C748.913 233.56 752.727 235.54 754.78 239.5C756.833 243.46 757.567 250.28 756.98 259.96C755.953 275.8 755.367 289.367 755.22 300.66C755.073 311.953 755.22 321.487 755.66 329.26C756.1 337.033 756.613 343.487 757.2 348.62C757.787 353.607 758.3 357.713 758.74 360.94C759.18 364.02 759.4 366.733 759.4 369.08C759.4 373.04 758.52 375.827 756.76 377.44C755 379.053 752.58 379.86 749.5 379.86ZM781.4 246.54C773.333 246.54 766 246.54 759.4 246.54C752.8 246.54 746.493 246.467 740.48 246.32C734.467 246.173 728.453 246.027 722.44 245.88C716.573 245.587 710.267 245.22 703.52 244.78C697.653 244.487 693.107 243.68 689.88 242.36C686.8 241.04 684.6 239.353 683.28 237.3C682.107 235.247 681.52 232.9 681.52 230.26C681.52 227.767 682.327 225.64 683.94 223.88C685.7 222.12 688.487 221.24 692.3 221.24C700.073 221.24 707.113 221.387 713.42 221.68C719.727 221.827 725.667 222.047 731.24 222.34C736.813 222.487 742.387 222.633 747.96 222.78C753.533 222.927 759.547 223 766 223C772.013 223 776.853 222.853 780.52 222.56C784.187 222.12 787.56 221.753 790.64 221.46C793.72 221.02 797.093 220.8 800.76 220.8C804.133 220.8 806.627 221.607 808.24 223.22C809.853 224.833 810.66 226.887 810.66 229.38C810.66 233.34 809.193 236.64 806.26 239.28C803.473 241.773 799.807 243.607 795.26 244.78C790.86 245.953 786.24 246.54 781.4 246.54ZM830.94 379.64C828.3 379.64 825.953 378.833 823.9 377.22C821.993 375.607 820.453 373.407 819.28 370.62C818.253 367.687 817.74 364.387 817.74 360.72C817.74 350.893 817.52 341.58 817.08 332.78C816.786 323.98 816.2 315.913 815.32 308.58C814.44 301.247 813.266 295.087 811.8 290.1C810.626 286.58 809.82 283.94 809.38 282.18C809.086 280.273 808.94 278.293 808.94 276.24C808.94 273.6 809.746 271.4 811.36 269.64C812.973 267.88 815.54 267 819.06 267C822.14 267 824.926 268.1 827.42 270.3C829.913 272.5 832.04 276.313 833.8 281.74C835.56 287.02 836.88 294.353 837.76 303.74C838.786 313.127 839.226 325.08 839.08 339.6L830.06 335.86C831.673 323.247 834.386 312.467 838.2 303.52C842.16 294.573 846.706 287.313 851.84 281.74C857.12 276.167 862.62 272.06 868.34 269.42C874.06 266.78 879.706 265.46 885.28 265.46C889.826 265.46 892.98 266.633 894.74 268.98C896.646 271.18 897.6 273.967 897.6 277.34C897.6 279.98 896.72 282.4 894.96 284.6C893.346 286.653 890.486 288.413 886.38 289.88C878.753 292.227 872.373 295.6 867.24 300C862.106 304.4 857.926 309.68 854.7 315.84C851.62 322 849.2 328.893 847.44 336.52C845.826 344.147 844.653 352.433 843.92 361.38C843.48 366.22 842.746 369.96 841.72 372.6C840.693 375.24 839.3 377.073 837.54 378.1C835.78 379.127 833.58 379.64 830.94 379.64ZM966.839 379.2C957.306 379.2 949.019 377.22 941.979 373.26C935.086 369.3 929.366 364.093 924.819 357.64C920.419 351.04 917.119 343.707 914.919 335.64C912.719 327.573 911.619 319.507 911.619 311.44C911.619 304.4 912.133 297.947 913.159 292.08C914.333 286.067 916.019 280.273 918.219 274.7C919.099 272.353 920.346 270.52 921.959 269.2C923.573 267.88 925.773 267.22 928.559 267.22C932.079 267.22 935.013 268.393 937.359 270.74C939.706 273.087 940.879 276.167 940.879 279.98C940.879 283.06 940.439 285.92 939.559 288.56C938.679 291.2 937.799 294.353 936.919 298.02C936.186 301.54 935.819 306.233 935.819 312.1C935.819 320.9 937.066 328.6 939.559 335.2C942.053 341.8 945.573 346.933 950.119 350.6C954.813 354.267 960.313 356.1 966.619 356.1C972.339 356.1 977.179 353.973 981.139 349.72C985.099 345.32 988.106 339.013 990.159 330.8C992.213 322.587 993.239 312.833 993.239 301.54C993.239 297.727 993.093 294.5 992.799 291.86C992.653 289.22 992.433 286.873 992.139 284.82C991.993 282.62 991.919 280.347 991.919 278C991.919 274.48 992.579 271.767 993.899 269.86C995.219 267.953 997.566 267 1000.94 267C1004.31 267 1007.17 268.027 1009.52 270.08C1011.87 271.987 1013.63 275.287 1014.8 279.98C1016.12 284.527 1016.78 290.833 1016.78 298.9C1016.78 316.94 1014.73 331.9 1010.62 343.78C1006.51 355.513 1000.72 364.387 993.239 370.4C985.759 376.267 976.959 379.2 966.839 379.2ZM1069.99 379.2C1062.51 379.2 1056.35 378.247 1051.51 376.34C1046.67 374.433 1043.07 372.013 1040.73 369.08C1038.53 366.147 1037.43 362.993 1037.43 359.62C1037.43 357.127 1038.16 355.073 1039.63 353.46C1041.24 351.847 1043.51 351.04 1046.45 351.04C1048.06 351.04 1049.45 351.333 1050.63 351.92C1051.95 352.507 1053.34 353.167 1054.81 353.9C1056.42 354.633 1058.33 355.293 1060.53 355.88C1062.87 356.467 1065.88 356.76 1069.55 356.76C1078.64 356.76 1086.34 355.733 1092.65 353.68C1099.1 351.48 1103.57 348.107 1106.07 343.56C1104.89 340.627 1102.55 338.353 1099.03 336.74C1095.51 335.127 1091.33 333.733 1086.49 332.56C1081.65 331.387 1076.59 330.14 1071.31 328.82C1066.17 327.353 1061.33 325.593 1056.79 323.54C1052.39 321.34 1048.79 318.48 1046.01 314.96C1043.22 311.44 1041.83 306.893 1041.83 301.32C1041.83 295.6 1043.51 290.467 1046.89 285.92C1050.26 281.373 1054.73 277.56 1060.31 274.48C1065.88 271.4 1072.04 269.053 1078.79 267.44C1085.53 265.827 1092.28 265.093 1099.03 265.24C1103.57 265.24 1107.39 265.973 1110.47 267.44C1113.55 268.907 1115.82 270.813 1117.29 273.16C1118.9 275.507 1119.71 277.927 1119.71 280.42C1119.71 283.06 1118.97 285.187 1117.51 286.8C1116.19 288.413 1114.13 289.22 1111.35 289.22C1110.03 289.22 1108.78 289.147 1107.61 289C1106.58 288.853 1105.41 288.78 1104.09 288.78C1102.77 288.633 1101.01 288.56 1098.81 288.56C1090.59 288.56 1083.48 289.733 1077.47 292.08C1071.45 294.28 1066.98 297.653 1064.05 302.2C1064.93 304.84 1067.13 306.967 1070.65 308.58C1074.17 310.193 1078.35 311.587 1083.19 312.76C1088.17 313.933 1093.31 315.18 1098.59 316.5C1104.01 317.82 1109 319.58 1113.55 321.78C1118.24 323.833 1122.05 326.62 1124.99 330.14C1127.92 333.66 1129.39 338.133 1129.39 343.56C1129.39 351.773 1126.67 358.52 1121.25 363.8C1115.82 369.08 1108.63 372.967 1099.69 375.46C1090.74 377.953 1080.84 379.2 1069.99 379.2ZM1199.61 379.86C1187.87 379.86 1178.41 377.147 1171.23 371.72C1164.04 366.147 1158.83 358.447 1155.61 348.62C1152.53 338.647 1150.99 327.133 1150.99 314.08C1150.99 306.307 1151.35 299.413 1152.09 293.4C1152.97 287.24 1153.85 281.373 1154.73 275.8C1155.75 270.227 1156.49 264.507 1156.93 258.64C1157.37 251.893 1157.59 246.467 1157.59 242.36C1157.59 238.253 1157.73 234.367 1158.03 230.7C1158.17 228.06 1158.98 225.787 1160.45 223.88C1162.06 221.827 1164.7 220.8 1168.37 220.8C1173.65 220.8 1177.39 223.513 1179.59 228.94C1181.79 234.367 1182.45 242.873 1181.57 254.46C1180.98 259.74 1180.32 264.653 1179.59 269.2C1178.85 273.6 1178.12 278 1177.39 282.4C1176.8 286.653 1176.29 291.273 1175.85 296.26C1175.41 301.1 1175.19 306.673 1175.19 312.98C1175.19 323.687 1176.14 332.193 1178.05 338.5C1180.1 344.807 1183.03 349.353 1186.85 352.14C1190.81 354.78 1195.72 356.1 1201.59 356.1C1205.11 356.1 1207.82 355.733 1209.73 355C1211.78 354.267 1213.54 353.607 1215.01 353.02C1216.47 352.287 1218.16 351.92 1220.07 351.92C1222.71 351.92 1224.69 352.727 1226.01 354.34C1227.33 355.953 1227.99 358.227 1227.99 361.16C1227.99 366.147 1225.64 370.547 1220.95 374.36C1216.4 378.027 1209.29 379.86 1199.61 379.86ZM1174.09 297.14C1169.39 299.193 1165.8 299.267 1163.31 297.36C1160.81 295.453 1159.57 292.74 1159.57 289.22C1159.57 285.7 1160.3 282.62 1161.77 279.98C1163.38 277.193 1167.27 274.7 1173.43 272.5C1177.24 271.033 1181.27 269.787 1185.53 268.76C1189.78 267.733 1194.11 266.927 1198.51 266.34C1203.05 265.753 1207.31 265.46 1211.27 265.46C1215.08 265.46 1218.16 265.973 1220.51 267C1222.85 268.027 1224.61 269.493 1225.79 271.4C1226.96 273.16 1227.55 275.36 1227.55 278C1227.55 280.787 1226.67 282.913 1224.91 284.38C1223.29 285.847 1220.87 286.727 1217.65 287.02C1211.34 287.46 1205.69 288.12 1200.71 289C1195.87 289.88 1191.32 290.98 1187.07 292.3C1182.96 293.62 1178.63 295.233 1174.09 297.14ZM1381.89 400.1C1377.93 400.1 1374.63 399 1371.99 396.8C1369.49 394.747 1367.07 391.447 1364.73 386.9C1363.11 383.82 1361.43 379.787 1359.67 374.8C1358.05 369.667 1356.51 363.287 1355.05 355.66C1353.58 347.887 1352.55 338.5 1351.97 327.5L1360.11 329.92C1353.95 342.533 1347.27 352.433 1340.09 359.62C1332.9 366.807 1325.49 371.867 1317.87 374.8C1310.24 377.733 1302.47 379.2 1294.55 379.2C1284.72 379.2 1275.99 377.147 1268.37 373.04C1260.89 368.933 1255.02 362.847 1250.77 354.78C1246.51 346.713 1244.39 336.667 1244.39 324.64C1244.39 313.933 1246.22 303.52 1249.89 293.4C1253.55 283.28 1258.61 273.893 1265.07 265.24C1271.52 256.44 1278.85 248.74 1287.07 242.14C1295.43 235.54 1304.37 230.407 1313.91 226.74C1323.44 223.073 1332.97 221.24 1342.51 221.24C1348.23 221.24 1352.77 222.047 1356.15 223.66C1359.67 225.273 1362.23 227.473 1363.85 230.26C1365.46 233.047 1366.27 236.2 1366.27 239.72C1366.27 244.267 1365.53 248.373 1364.07 252.04C1362.6 255.707 1360.55 258.567 1357.91 260.62C1355.41 262.673 1352.63 263.7 1349.55 263.7C1347.49 263.7 1346.17 263.187 1345.59 262.16C1345 260.987 1344.71 259.593 1344.71 257.98C1344.71 256.22 1344.63 254.533 1344.49 252.92C1344.34 251.307 1343.75 249.913 1342.73 248.74C1341.7 247.567 1339.87 246.98 1337.23 246.98C1330.77 246.98 1324.32 248.52 1317.87 251.6C1311.41 254.533 1305.33 258.567 1299.61 263.7C1293.89 268.833 1288.83 274.7 1284.43 281.3C1280.03 287.9 1276.51 294.793 1273.87 301.98C1271.37 309.167 1270.13 316.28 1270.13 323.32C1270.13 334.173 1272.47 342.24 1277.17 347.52C1281.86 352.8 1288.02 355.44 1295.65 355.44C1302.98 355.44 1309.73 353.827 1315.89 350.6C1322.19 347.227 1328.06 342.387 1333.49 336.08C1339.06 329.773 1344.12 322 1348.67 312.76C1350.87 308.947 1353.29 306.307 1355.93 304.84C1358.57 303.373 1361.94 302.64 1366.05 302.64C1368.98 302.64 1371.18 303.52 1372.65 305.28C1374.26 306.893 1375.07 309.24 1375.07 312.32C1375.07 322 1375.43 330.653 1376.17 338.28C1377.05 345.76 1378.37 352.433 1380.13 358.3C1381.89 364.167 1383.94 369.74 1386.29 375.02C1387.61 378.1 1388.63 380.593 1389.37 382.5C1390.1 384.407 1390.54 386.02 1390.69 387.34C1390.98 388.66 1391.13 389.98 1391.13 391.3C1391.13 394.087 1390.25 396.213 1388.49 397.68C1386.87 399.293 1384.67 400.1 1381.89 400.1ZM1316.77 319.36C1313.1 319.36 1310.09 318.333 1307.75 316.28C1305.55 314.08 1304.45 311.293 1304.45 307.92C1304.45 305.28 1305.4 303.08 1307.31 301.32C1309.21 299.413 1312.95 297.727 1318.53 296.26C1328.21 293.767 1338.03 291.787 1348.01 290.32C1358.13 288.853 1368.54 288.047 1379.25 287.9C1384.38 287.9 1388.19 288.34 1390.69 289.22C1393.33 290.1 1395.09 291.347 1395.97 292.96C1396.99 294.573 1397.51 296.553 1397.51 298.9C1397.51 301.98 1396.41 304.84 1394.21 307.48C1392.01 310.12 1388.49 311.44 1383.65 311.44C1371.03 311.44 1360.4 312.1 1351.75 313.42C1343.24 314.74 1336.2 316.06 1330.63 317.38C1325.2 318.7 1320.58 319.36 1316.77 319.36ZM1447.11 379.2C1440.22 379.2 1434.13 377.733 1428.85 374.8C1423.72 371.72 1419.76 367.467 1416.97 362.04C1414.19 356.613 1412.79 350.233 1412.79 342.9C1412.79 335.713 1413.89 328.453 1416.09 321.12C1418.44 313.64 1421.67 306.6 1425.77 300C1429.88 293.4 1434.72 287.533 1440.29 282.4C1445.87 277.12 1451.95 273.013 1458.55 270.08C1465.15 267 1472.12 265.46 1479.45 265.46C1483.41 265.46 1486.79 266.633 1489.57 268.98C1492.36 271.327 1493.75 274.773 1493.75 279.32C1493.75 281.227 1493.17 282.84 1491.99 284.16C1490.82 285.48 1489.13 286.287 1486.93 286.58C1476.96 287.9 1468.16 291.493 1460.53 297.36C1453.05 303.227 1447.19 310.267 1442.93 318.48C1438.83 326.693 1436.77 335.273 1436.77 344.22C1436.77 347.887 1437.07 351.26 1437.65 354.34C1438.24 357.273 1439.56 361.087 1441.61 365.78L1429.07 348.18C1432.45 351.407 1435.31 353.533 1437.65 354.56C1440.15 355.44 1443.37 355.88 1447.33 355.88C1455.99 355.88 1463.83 350.673 1470.87 340.26C1478.06 329.7 1483.27 314.3 1486.49 294.06C1486.93 290.98 1488.11 288.633 1490.01 287.02C1491.92 285.26 1494.27 284.38 1497.05 284.38C1501.31 284.38 1504.9 285.847 1507.83 288.78C1510.77 291.567 1512.75 295.16 1513.77 299.56C1515.39 307.48 1517.07 314.667 1518.83 321.12C1520.59 327.427 1522.94 333.513 1525.87 339.38C1528.81 345.1 1532.84 351.113 1537.97 357.42C1539.44 359.033 1540.25 361.087 1540.39 363.58C1540.54 365.927 1540.17 368.273 1539.29 370.62C1538.41 372.82 1537.02 374.727 1535.11 376.34C1533.35 377.807 1531.23 378.54 1528.73 378.54C1526.53 378.54 1524.7 378.1 1523.23 377.22C1521.91 376.34 1520.67 375.167 1519.49 373.7C1516.56 369.887 1513.85 366.073 1511.35 362.26C1508.86 358.3 1506.51 353.973 1504.31 349.28C1502.26 344.44 1500.43 338.867 1498.81 332.56C1497.35 326.107 1496.1 318.553 1495.07 309.9L1503.65 309.46C1501.45 322.367 1498.3 333.293 1494.19 342.24C1490.23 351.187 1485.69 358.373 1480.55 363.8C1475.42 369.227 1469.99 373.187 1464.27 375.68C1458.55 378.027 1452.83 379.2 1447.11 379.2ZM1603.94 379.86C1592.21 379.86 1582.75 377.147 1575.56 371.72C1568.38 366.147 1563.17 358.447 1559.94 348.62C1556.86 338.647 1555.32 327.133 1555.32 314.08C1555.32 306.307 1555.69 299.413 1556.42 293.4C1557.3 287.24 1558.18 281.373 1559.06 275.8C1560.09 270.227 1560.82 264.507 1561.26 258.64C1561.7 251.893 1561.92 246.467 1561.92 242.36C1561.92 238.253 1562.07 234.367 1562.36 230.7C1562.51 228.06 1563.32 225.787 1564.78 223.88C1566.4 221.827 1569.04 220.8 1572.7 220.8C1577.98 220.8 1581.72 223.513 1583.92 228.94C1586.12 234.367 1586.78 242.873 1585.9 254.46C1585.32 259.74 1584.66 264.653 1583.92 269.2C1583.19 273.6 1582.46 278 1581.72 282.4C1581.14 286.653 1580.62 291.273 1580.18 296.26C1579.74 301.1 1579.52 306.673 1579.52 312.98C1579.52 323.687 1580.48 332.193 1582.38 338.5C1584.44 344.807 1587.37 349.353 1591.18 352.14C1595.14 354.78 1600.06 356.1 1605.92 356.1C1609.44 356.1 1612.16 355.733 1614.06 355C1616.12 354.267 1617.88 353.607 1619.34 353.02C1620.81 352.287 1622.5 351.92 1624.4 351.92C1627.04 351.92 1629.02 352.727 1630.34 354.34C1631.66 355.953 1632.32 358.227 1632.32 361.16C1632.32 366.147 1629.98 370.547 1625.28 374.36C1620.74 378.027 1613.62 379.86 1603.94 379.86ZM1578.42 297.14C1573.73 299.193 1570.14 299.267 1567.64 297.36C1565.15 295.453 1563.9 292.74 1563.9 289.22C1563.9 285.7 1564.64 282.62 1566.1 279.98C1567.72 277.193 1571.6 274.7 1577.76 272.5C1581.58 271.033 1585.61 269.787 1589.86 268.76C1594.12 267.733 1598.44 266.927 1602.84 266.34C1607.39 265.753 1611.64 265.46 1615.6 265.46C1619.42 265.46 1622.5 265.973 1624.84 267C1627.19 268.027 1628.95 269.493 1630.12 271.4C1631.3 273.16 1631.88 275.36 1631.88 278C1631.88 280.787 1631 282.913 1629.24 284.38C1627.63 285.847 1625.21 286.727 1621.98 287.02C1615.68 287.46 1610.03 288.12 1605.04 289C1600.2 289.88 1595.66 290.98 1591.4 292.3C1587.3 293.62 1582.97 295.233 1578.42 297.14ZM1697.15 379.2C1685.56 379.2 1676.03 377.147 1668.55 373.04C1661.21 368.787 1655.79 363.067 1652.27 355.88C1648.75 348.547 1646.99 340.187 1646.99 330.8C1646.99 323.173 1648.38 315.547 1651.17 307.92C1654.1 300.147 1658.21 293.107 1663.49 286.8C1668.77 280.347 1675.07 275.213 1682.41 271.4C1689.89 267.44 1698.17 265.46 1707.27 265.46C1718.41 265.46 1727.36 268.393 1734.11 274.26C1740.85 279.98 1744.23 288.633 1744.23 300.22C1744.23 308.287 1741.81 315.033 1736.97 320.46C1732.13 325.887 1725.53 329.993 1717.17 332.78C1708.81 335.567 1699.49 336.96 1689.23 336.96C1680.72 336.96 1674.56 335.713 1670.75 333.22C1667.08 330.58 1665.25 327.647 1665.25 324.42C1665.25 322.66 1665.69 321.34 1666.57 320.46C1667.45 319.433 1668.99 318.92 1671.19 318.92C1672.8 318.92 1674.78 319.213 1677.13 319.8C1679.47 320.24 1682.77 320.46 1687.03 320.46C1693.63 320.46 1699.49 319.653 1704.63 318.04C1709.76 316.28 1713.87 313.933 1716.95 311C1720.03 307.92 1721.57 304.473 1721.57 300.66C1721.57 296.26 1720.47 292.96 1718.27 290.76C1716.07 288.56 1712.4 287.46 1707.27 287.46C1700.23 287.46 1693.92 289.66 1688.35 294.06C1682.92 298.46 1678.59 304.253 1675.37 311.44C1672.29 318.48 1670.75 326.033 1670.75 334.1C1670.75 338.647 1671.55 342.753 1673.17 346.42C1674.78 350.087 1677.35 352.947 1680.87 355C1684.53 357.053 1689.45 358.08 1695.61 358.08C1703.82 358.08 1710.64 357.2 1716.07 355.44C1721.49 353.68 1726.04 351.7 1729.71 349.5C1733.37 347.153 1736.45 345.1 1738.95 343.34C1741.59 341.58 1744.08 340.7 1746.43 340.7C1748.63 340.7 1750.17 341.433 1751.05 342.9C1752.07 344.22 1752.59 346.347 1752.59 349.28C1752.59 352.507 1751.12 355.88 1748.19 359.4C1745.4 362.92 1741.44 366.147 1736.31 369.08C1731.32 372.013 1725.45 374.433 1718.71 376.34C1712.11 378.247 1704.92 379.2 1697.15 379.2Z" fill="#090A0B"/>
</g>
<defs>
<clipPath id="clip0_4656_3058">
<rect width="1952" height="600" fill="white"/>
</clipPath>
</defs>
</svg>
